<svg id="_0248_checklist_1" xmlns="http://www.w3.org/2000/svg" xmlns:xlink="http://www.w3.org/1999/xlink" viewBox="0 0 500 500" data-imageid="checklist-1-18" imageName="Checklist 1" class="illustrations_image" style="width: 181px;"><defs><style>.cls-1_checklist-1-18{fill:url(#linear-gradient);}.cls-1_checklist-1-18,.cls-2_checklist-1-18,.cls-3_checklist-1-18,.cls-4_checklist-1-18,.cls-5_checklist-1-18,.cls-6_checklist-1-18,.cls-7_checklist-1-18,.cls-8_checklist-1-18,.cls-9_checklist-1-18,.cls-10_checklist-1-18,.cls-11_checklist-1-18,.cls-12_checklist-1-18,.cls-13_checklist-1-18,.cls-14_checklist-1-18,.cls-15_checklist-1-18,.cls-16_checklist-1-18,.cls-17_checklist-1-18,.cls-18_checklist-1-18,.cls-19_checklist-1-18,.cls-20_checklist-1-18,.cls-21_checklist-1-18,.cls-22_checklist-1-18,.cls-23_checklist-1-18{stroke-width:0px;}.cls-2_checklist-1-18{fill:url(#linear-gradient-11-checklist-1-18);}.cls-3_checklist-1-18{fill:url(#linear-gradient-12-checklist-1-18);}.cls-4_checklist-1-18{fill:url(#linear-gradient-13-checklist-1-18);}.cls-5_checklist-1-18{fill:url(#linear-gradient-10-checklist-1-18);}.cls-6_checklist-1-18{fill:url(#linear-gradient-17-checklist-1-18);}.cls-7_checklist-1-18{fill:url(#linear-gradient-16-checklist-1-18);}.cls-8_checklist-1-18{fill:url(#linear-gradient-15-checklist-1-18);}.cls-9_checklist-1-18{fill:url(#linear-gradient-18-checklist-1-18);}.cls-10_checklist-1-18{fill:url(#linear-gradient-14-checklist-1-18);}.cls-11_checklist-1-18{fill:url(#linear-gradient-4-checklist-1-18);}.cls-12_checklist-1-18{fill:url(#linear-gradient-2-checklist-1-18);}.cls-13_checklist-1-18{fill:url(#linear-gradient-3-checklist-1-18);}.cls-14_checklist-1-18{fill:url(#linear-gradient-8-checklist-1-18);}.cls-15_checklist-1-18{fill:url(#linear-gradient-9-checklist-1-18);}.cls-16_checklist-1-18{fill:url(#linear-gradient-7-checklist-1-18);}.cls-17_checklist-1-18{fill:url(#linear-gradient-5-checklist-1-18);}.cls-18_checklist-1-18{fill:url(#linear-gradient-6-checklist-1-18);}.cls-19_checklist-1-18{isolation:isolate;opacity:.24;}.cls-19_checklist-1-18,.cls-23_checklist-1-18{fill:#68e1fd;}.cls-20_checklist-1-18{fill:#231f20;}.cls-21_checklist-1-18{fill:#fff;}.cls-22_checklist-1-18{fill:#ffaa71;}</style><linearGradient id="linear-gradient-checklist-1-18" x1="277.32" y1="2390.03" x2="295.77" y2="2868.91" gradientTransform="translate(-33.28 2829.36) scale(1 -1)" gradientUnits="userSpaceOnUse"><stop offset="0" stop-color="#010101" stop-opacity="0"/><stop offset=".95" stop-color="#010101"/></linearGradient><linearGradient id="linear-gradient-2-checklist-1-18" x1="195.92" y1="2826.9" x2="221.96" y2="2411.34" gradientTransform="translate(-31 2855.73) scale(1 -1)" gradientUnits="userSpaceOnUse"><stop offset="0" stop-color="#fff" stop-opacity="0"/><stop offset=".14" stop-color="#fff" stop-opacity=".22"/><stop offset=".3" stop-color="#fff" stop-opacity=".45"/><stop offset=".45" stop-color="#fff" stop-opacity=".65"/><stop offset=".6" stop-color="#fff" stop-opacity=".8"/><stop offset=".73" stop-color="#fff" stop-opacity=".91"/><stop offset=".85" stop-color="#fff" stop-opacity=".98"/><stop offset=".94" stop-color="#fff"/></linearGradient><linearGradient id="linear-gradient-3-checklist-1-18" x1="106.83" y1="2473.29" x2="479.2" y2="2883.8" xlink:href="#linear-gradient-checklist-1-18"/><linearGradient id="linear-gradient-4-checklist-1-18" x1="211.85" y1="2715.28" x2="211.37" y2="2739.02" xlink:href="#linear-gradient-2-checklist-1-18"/><linearGradient id="linear-gradient-5-checklist-1-18" x1="464.68" y1="2673.44" x2="448.65" y2="2674.39" xlink:href="#linear-gradient-checklist-1-18"/><linearGradient id="linear-gradient-6-checklist-1-18" x1="399.75" y1="171.15" x2="412.95" y2="171.15" gradientUnits="userSpaceOnUse"><stop offset="0" stop-color="#231f20" stop-opacity="0"/><stop offset="1" stop-color="#231f20"/></linearGradient><linearGradient id="linear-gradient-7-checklist-1-18" x1="442.44" y1="2537.07" x2="375.46" y2="2542.72" xlink:href="#linear-gradient-checklist-1-18"/><linearGradient id="linear-gradient-8-checklist-1-18" x1="435.83" y1="2609.61" x2="547.79" y2="2723.03" gradientTransform="translate(-31 2855.73) scale(1 -1)" xlink:href="#linear-gradient-checklist-1-18"/><linearGradient id="linear-gradient-9-checklist-1-18" x1="435.32" y1="2647.23" x2="503.71" y2="2683.75" xlink:href="#linear-gradient-checklist-1-18"/><linearGradient id="linear-gradient-10-checklist-1-18" x1="411.63" y1="2455.23" x2="396.68" y2="2511.28" xlink:href="#linear-gradient-checklist-1-18"/><linearGradient id="linear-gradient-11-checklist-1-18" x1="445.62" y1="2463.46" x2="430.68" y2="2519.48" xlink:href="#linear-gradient-checklist-1-18"/><linearGradient id="linear-gradient-12-checklist-1-18" x1="449.92" y1="2687.27" x2="425.87" y2="2675.66" xlink:href="#linear-gradient-checklist-1-18"/><linearGradient id="linear-gradient-13-checklist-1-18" x1="472.15" y1="2645.57" x2="-184.18" y2="2382.36" gradientTransform="translate(-33.28 2829.36) scale(1 -1)" xlink:href="#linear-gradient-2-checklist-1-18"/><linearGradient id="linear-gradient-14-checklist-1-18" x1="393.75" y1="2481.3" x2="256.44" y2="2426.24" gradientTransform="translate(-33.28 2829.36) scale(1 -1)" xlink:href="#linear-gradient-2-checklist-1-18"/><linearGradient id="linear-gradient-15-checklist-1-18" x1="372.17" y1="2716.63" x2="370.26" y2="2682.06" gradientTransform="translate(-33.28 2829.36) scale(1 -1)" xlink:href="#linear-gradient-2-checklist-1-18"/><linearGradient id="linear-gradient-16-checklist-1-18" x1="369.26" y1="2711.96" x2="381.48" y2="2742.93" xlink:href="#linear-gradient-checklist-1-18"/><linearGradient id="linear-gradient-17-checklist-1-18" x1="368.86" y1="2516.65" x2="370.33" y2="2476.06" gradientTransform="translate(-31 2855.73) scale(1 -1)" xlink:href="#linear-gradient-checklist-1-18"/><linearGradient id="linear-gradient-18-checklist-1-18" x1="371.34" y1="2465.02" x2="371.59" y2="2516.64" xlink:href="#linear-gradient-checklist-1-18"/></defs><g id="background_checklist-1-18"><path class="cls-19_checklist-1-18 targetColor" d="M491.97,270.1c-.17,19.81-3.13,40.01-12.37,57.69-5.87,11.19-14.16,21.26-24.4,29.66-24.05,20.02-57.43,30.86-89.7,34.25-45.63,4.8-91.79-2.02-137.68.1-28.64,1.33-57.08,6.11-85.75,6.77-28.67.66-58.47-3.22-82.81-17.77-9.25-5.59-17.45-12.43-24.3-20.25-8.89-10.09-15.83-21.4-20.53-33.48-18.29-46.45-3.19-103.18,36.12-135.47,15.51-12.75,33.98-21.7,52.34-30.34,38.4-18.02,102.88-143.59,253.97-61.1,29.51,16.15,44.79,49.23,70.88,70.17,23.23,18.64,49.58,36.87,59.4,64.37,4.06,11.31,4.94,23.46,4.84,35.39Z" style="fill: rgb(250, 204, 21);"/><path class="cls-19_checklist-1-18 targetColor" d="M455.2,357.45c-24.05,20.02-57.43,30.86-89.7,34.25-45.63,4.8-91.79-2.02-137.68.1-28.64,1.33-57.08,6.11-85.75,6.77s-58.47-3.22-82.81-17.77c-9.25-5.59-17.45-12.43-24.3-20.25,2.34-.52,4.71-.92,7.1-1.2,48.13-5.73,96.84-6.42,145.41-7.08l132.58-1.84c14.69-.21,29.45-.41,44.1.84,18.73,1.59,37.12,5.52,55.85,7,11.88.95,23.5-.57,35.21-.84Z" style="fill: rgb(250, 204, 21);"/><path class="cls-1_checklist-1-18" d="M371.68,359.93c-89.63-4.36-179.46-4.43-269.1-.21-15.14.71-30.56,1.6-44.7,6.42,6.94,5.58,17.27,6.03,26.68,6.16,68.94.98,137.88,1.25,206.82.81,4.04,0,9.63-1.58,8.83-5.08-.24-1.05-1.12-2-1.05-3.06.13-1.95,2.96-2.65,5.21-2.74,5.98-.27,11.98,0,17.89.84,2.14.31,4.43.76,5.85,2.21,1.11,1.13,1.48,2.67,2.29,3.97,2.66,4.27,9.29,5.2,14.75,4.26,5.47-.94,10.55-3.21,16.08-3.45,4.87-.22,9.62,1.16,14.38,2.13,15.54,3.16,31.75,1.99,47.64.81,16.49-1.23,16.84-11.26.4-12.06-17.25-.82-34.69-.17-51.98-1.02Z"/></g><g id="checklist_checklist-1-18"><path class="cls-23_checklist-1-18 targetColor" d="M93.09,114.59h159.55c7.66,0,13.87,5.46,13.87,12.2v227.51c0,6.74-6.21,12.2-13.87,12.2H93.09c-7.66,0-13.87-5.46-13.87-12.2V126.8c0-6.74,6.21-12.2,13.87-12.2Z" style="fill: rgb(250, 204, 21);"/><path class="cls-23_checklist-1-18 targetColor" d="M98.41,114.59h159.55c7.66,0,13.87,5.46,13.87,12.2v227.51c0,6.74-6.21,12.2-13.87,12.2H98.41c-7.66,0-13.87-5.46-13.87-12.2V126.8c0-6.74,6.21-12.2,13.87-12.2Z" style="fill: rgb(250, 204, 21);"/><path class="cls-12_checklist-1-18" d="M98.41,114.59h159.55c7.66,0,13.87,5.46,13.87,12.2v227.51c0,6.74-6.21,12.2-13.87,12.2H98.41c-7.66,0-13.87-5.46-13.87-12.2V126.8c0-6.74,6.21-12.2,13.87-12.2Z"/><path class="cls-13_checklist-1-18" d="M98.85,259.51l4.9-132.68,141.76,2.63s-18.54,137.72-5.45,173.27c13.09,35.55,15.27,48.88,15.27,48.88l-153.21,3.82-3.27-95.92Z"/><path class="cls-21_checklist-1-18" d="M280.82,339.88l-154.98,1.44s-15.93-81.47-18.7-108.78c-2.72-26.31-3.34-105.71-3.34-105.71h147.99s.37,76.95,2.99,102.44c2.9,28.13,26.04,110.61,26.04,110.61Z"/><path class="cls-23_checklist-1-18 targetColor" d="M120.67,153.7h73.05c1.36,0,2.46.97,2.46,2.16h0c0,1.19-1.1,2.16-2.46,2.16h-73.05c-1.36,0-2.46-.97-2.46-2.16h0c0-1.19,1.1-2.16,2.46-2.16Z" style="fill: rgb(250, 204, 21);"/><path class="cls-23_checklist-1-18 targetColor" d="M120.67,161.14h73.05c1.36,0,2.46.97,2.46,2.16h0c0,1.19-1.1,2.16-2.46,2.16h-73.05c-1.36,0-2.46-.97-2.46-2.16h0c0-1.19,1.1-2.16,2.46-2.16Z" style="fill: rgb(250, 204, 21);"/><path class="cls-23_checklist-1-18 targetColor" d="M120.67,168.58h73.05c1.36,0,2.46.97,2.46,2.16h0c0,1.19-1.1,2.16-2.46,2.16h-73.05c-1.36,0-2.46-.97-2.46-2.16h0c0-1.19,1.1-2.16,2.46-2.16Z" style="fill: rgb(250, 204, 21);"/><path class="cls-23_checklist-1-18 targetColor" d="M145.74,176.02h48.43c1.11,0,2.01.79,2.01,1.77v.77c0,.98-.9,1.77-2.01,1.77h-48.43c-1.11,0-2.01-.79-2.01-1.77v-.77c0-.98.9-1.77,2.01-1.77Z" style="fill: rgb(250, 204, 21);"/><path class="cls-23_checklist-1-18 targetColor" d="M121.48,200.85h73.05c1.36,0,2.46.97,2.46,2.16h0c0,1.19-1.1,2.16-2.46,2.16h-73.05c-1.36,0-2.46-.97-2.46-2.16h0c0-1.19,1.1-2.16,2.46-2.16Z" style="fill: rgb(250, 204, 21);"/><path class="cls-23_checklist-1-18 targetColor" d="M121.48,208.28h73.05c1.36,0,2.46.97,2.46,2.16h0c0,1.19-1.1,2.16-2.46,2.16h-73.05c-1.36,0-2.46-.97-2.46-2.16h0c0-1.19,1.1-2.16,2.46-2.16Z" style="fill: rgb(250, 204, 21);"/><path class="cls-23_checklist-1-18 targetColor" d="M121.48,215.72h73.05c1.36,0,2.46.97,2.46,2.16h0c0,1.19-1.1,2.16-2.46,2.16h-73.05c-1.36,0-2.46-.97-2.46-2.16h0c0-1.19,1.1-2.16,2.46-2.16Z" style="fill: rgb(250, 204, 21);"/><path class="cls-23_checklist-1-18 targetColor" d="M146.56,223.15h48.43c1.11,0,2.01.79,2.01,1.77v.77c0,.98-.9,1.77-2.01,1.77h-48.43c-1.11,0-2.01-.79-2.01-1.77v-.77c0-.98.9-1.77,2.01-1.77Z" style="fill: rgb(250, 204, 21);"/><path class="cls-23_checklist-1-18 targetColor" d="M200.1,250.15h-73.06c-1.4-.04-2.56-.95-2.78-2.16h0c-.2-1,.57-1.95,1.7-2.13.14-.02.28-.03.42-.03h73.05c1.4.03,2.57.94,2.79,2.15h0c.2,1.01-.57,1.96-1.71,2.14-.14.02-.27.03-.41.03Z" style="fill: rgb(250, 204, 21);"/><path class="cls-23_checklist-1-18 targetColor" d="M201.23,257.57h-73.06c-1.42-.03-2.6-.96-2.8-2.19h0c-.19-1.01.58-1.96,1.72-2.13.13-.02.27-.03.4-.02h73.06c1.39.04,2.56.94,2.78,2.15h0c.22,1-.53,1.97-1.67,2.16-.14.02-.28.03-.43.03Z" style="fill: rgb(250, 204, 21);"/><path class="cls-23_checklist-1-18 targetColor" d="M202.36,264.99h-73.06c-1.39-.04-2.56-.94-2.78-2.15h0c-.2-1.01.57-1.96,1.71-2.14.14-.02.27-.03.41-.03h73.09c1.4.04,2.56.95,2.78,2.16h0c.19,1.01-.58,1.96-1.72,2.13-.14.02-.29.03-.43.02Z" style="fill: rgb(250, 204, 21);"/><path class="cls-23_checklist-1-18 targetColor" d="M203.93,272.42h-48.43c-1.14-.03-2.1-.77-2.28-1.76l-.12-.76c-.15-.83.49-1.62,1.44-1.75.1-.01.2-.02.3-.02h48.43c1.15.03,2.11.77,2.28,1.77l.11.76c.15.83-.5,1.62-1.45,1.75-.1.01-.19.02-.29.02Z" style="fill: rgb(250, 204, 21);"/><path class="cls-23_checklist-1-18 targetColor" d="M208.97,297.38h-73.06c-1.43-.05-2.63-.95-2.92-2.18h0c-.27-.94.38-1.9,1.45-2.13.18-.04.36-.06.54-.05h73.06c1.43.05,2.63.95,2.92,2.18h0c.27.94-.37,1.89-1.43,2.13-.18.04-.37.06-.56.05Z" style="fill: rgb(250, 204, 21);"/><path class="cls-23_checklist-1-18 targetColor" d="M210.59,304.88h-73.08c-1.43-.05-2.64-.96-2.92-2.19h0c-.27-.94.37-1.89,1.43-2.13.18-.04.36-.06.55-.05h73.06c1.43.05,2.63.95,2.92,2.18h0c.28.93-.36,1.89-1.42,2.14-.18.04-.36.06-.54.06Z" style="fill: rgb(250, 204, 21);"/><path class="cls-23_checklist-1-18 targetColor" d="M212.21,312.42h-73.06c-1.43-.05-2.63-.95-2.92-2.18h0c-.25-.95.42-1.89,1.49-2.11.16-.03.33-.05.49-.05h73.07c1.43.06,2.63.96,2.92,2.19h0c.24.95-.43,1.89-1.5,2.1-.16.03-.33.05-.49.04Z" style="fill: rgb(250, 204, 21);"/><path class="cls-23_checklist-1-18 targetColor" d="M214.27,319.95h-48.43c-1.17-.05-2.15-.79-2.4-1.79l-.16-.76c-.23-.76.29-1.54,1.16-1.74.15-.04.31-.05.47-.05h48.43c1.16.06,2.14.79,2.4,1.79l.17.76c.23.77-.3,1.55-1.17,1.75-.15.03-.31.05-.46.05Z" style="fill: rgb(250, 204, 21);"/><path class="cls-23_checklist-1-18 targetColor" d="M230.65,185.33h-14.56c-5.81,0-10.52-4.15-10.53-9.26v-13.86c0-5.11,4.72-9.26,10.53-9.26h14.56c5.81,0,10.52,4.15,10.53,9.26v13.89c-.02,5.1-4.73,9.23-10.53,9.23ZM216.09,155.46c-4.21,0-7.62,3.01-7.63,6.71v13.89c0,3.71,3.42,6.71,7.63,6.71h14.56c4.21,0,7.62-3.01,7.62-6.71v-13.86c0-3.7-3.41-6.71-7.62-6.71l-14.56-.03Z" style="fill: rgb(250, 204, 21);"/><path class="cls-23_checklist-1-18 targetColor" d="M234.48,233.02h-14.52c-5.63,0-10.27-3.89-10.52-8.84l-.69-13.61c-.26-5.11,4.23-9.44,10.04-9.67.16,0,.32,0,.48,0h14.54c5.61.02,10.22,3.92,10.46,8.85l.7,13.6c.26,5.11-4.23,9.44-10.04,9.67-.16,0-.32,0-.48,0h.03ZM219.24,203.44c-4.21,0-7.62,3-7.63,6.7,0,.1,0,.21,0,.31l.7,13.61c.18,3.58,3.53,6.41,7.61,6.4h14.55c4.21,0,7.62-3,7.63-6.7,0-.1,0-.21,0-.31l-.7-13.6c-.18-3.59-3.54-6.41-7.62-6.41h-14.54Z" style="fill: rgb(250, 204, 21);"/><path class="cls-23_checklist-1-18 targetColor" d="M224.56,277.14c-5.49,0-10.05-3.71-10.48-8.52l-1.24-13.57c-.46-5.1,3.86-9.57,9.66-9.98.15-.01.31-.02.47-.02l14.54-.44c5.6-.14,10.36,3.58,10.87,8.49l1.24,13.57c.46,5.11-3.87,9.58-9.68,9.98-.15.01-.3.02-.45.02l-14.54.44-.38.03ZM237.88,247.14h-.28l-14.54.44c-4.21.14-7.51,3.25-7.35,6.96,0,.1.01.19.02.29l1.24,13.57c.34,3.57,3.79,6.28,7.86,6.17l14.54-.45c4.21-.13,7.5-3.23,7.35-6.93,0-.1-.01-.21-.02-.31l-1.24-13.57c-.31-3.48-3.61-6.17-7.58-6.17h0Z" style="fill: rgb(250, 204, 21);"/><path class="cls-23_checklist-1-18 targetColor" d="M235.97,322.12c-5.17,0-9.58-3.29-10.41-7.78l-2.43-13.23c-.93-5.05,2.96-9.81,8.7-10.63.44-.06.88-.1,1.32-.11l14.41-.44c5.29-.12,9.87,3.2,10.76,7.78l2.43,13.23c.93,5.06-2.97,9.82-8.72,10.63-.43.06-.87.1-1.3.11l-14.41.44h-.34ZM247.95,292.47h-.27l-14.41.44c-4.21.14-7.49,3.26-7.33,6.97.01.27.04.55.09.82l2.44,13.23c.65,3.32,3.98,5.72,7.81,5.64l14.41-.44c4.2-.12,7.49-3.22,7.35-6.92-.01-.29-.04-.57-.1-.86l-2.43-13.24c-.61-3.26-3.81-5.65-7.57-5.64Z" style="fill: rgb(250, 204, 21);"/><path class="cls-23_checklist-1-18 targetColor" d="M145.31,121.79h70.64c2.85,0,5.16,2.03,5.16,4.54v7.1c0,2.51-2.31,4.54-5.16,4.54h-70.64c-2.85,0-5.16-2.03-5.16-4.54v-7.1c0-2.51,2.31-4.54,5.16-4.54Z" style="fill: rgb(250, 204, 21);"/><path class="cls-11_checklist-1-18" d="M145.31,121.79h70.64c2.85,0,5.16,2.03,5.16,4.54v7.1c0,2.51-2.31,4.54-5.16,4.54h-70.64c-2.85,0-5.16-2.03-5.16-4.54v-7.1c0-2.51,2.31-4.54,5.16-4.54Z"/><path class="cls-23_checklist-1-18 targetColor" d="M223.94,179.48l-12.72-11.17c-1.7-1.5-1.7-3.93,0-5.42s4.46-1.5,6.16,0l6.07,5.35,20.39-20.75c1.57-1.6,4.33-1.78,6.15-.39,1.82,1.39,2.02,3.81.45,5.41h0l-26.5,26.98Z" style="fill: rgb(250, 204, 21);"/><path class="cls-23_checklist-1-18 targetColor" d="M229.94,226.03l-12.71-11.19c-1.7-1.5-1.7-3.93,0-5.42,1.7-1.5,4.46-1.5,6.16,0h0l6.07,5.35,20.39-20.75c1.57-1.6,4.33-1.78,6.15-.39,1.82,1.39,2.02,3.81.45,5.41h0l-26.5,27Z" style="fill: rgb(250, 204, 21);"/><path class="cls-23_checklist-1-18 targetColor" d="M234.3,270.41l-12.72-11.21c-1.7-1.5-1.7-3.93,0-5.42,1.7-1.5,4.46-1.5,6.16,0l6.07,5.35,20.39-20.75c1.57-1.6,4.32-1.78,6.14-.39,1.82,1.38,2.02,3.8.45,5.4h0l-26.49,27.03Z" style="fill: rgb(250, 204, 21);"/><path class="cls-23_checklist-1-18 targetColor" d="M245.6,315.04l-12.71-11.2c-1.7-1.5-1.7-3.92,0-5.42s4.46-1.49,6.16,0h0l6.07,5.35,20.39-20.74c1.57-1.6,4.33-1.78,6.15-.39,1.82,1.39,2.02,3.81.45,5.41l-26.51,26.99Z" style="fill: rgb(250, 204, 21);"/></g><g id="character_checklist-1-18"><path class="cls-22_checklist-1-18" d="M433.07,255.94l-7.44-35.74h10.21s2.34,28.6,3.47,36.35l-6.25-.6Z"/><path class="cls-22_checklist-1-18" d="M438.8,253.98s1.43,5.58.59,8.68c-.84,3.11-4.34,6.73-6.32,6.94s-3.19-.64-3.05-1.83,5.21-5.39,4.43-6.73-2.78,2.73-3.47,1.74-.4-2.51,1.35-4.45c1.74-1.93,0-4.63,0-4.63,0,0,5.24-2.05,6.47.26Z"/><path class="cls-20_checklist-1-18" d="M418.87,146.1c2.13-1.38,6.45-.91,8.59-.15,3.13,1.13,5.5,3.47,6.4,6.34.39,1.33.5,2.71.33,4.07-.31,3-1.78,6.03-4.55,7.82-5.8,3.73-9.37.27-11.09-4.38-1.09-2.63-1.45-5.46-1.02-8.23.31-2.1-.78-3.76,1.07-5.26l.28-.2Z"/><path class="cls-17_checklist-1-18" d="M418.87,146.1c2.13-1.38,6.45-.91,8.59-.15,3.13,1.13,5.5,3.47,6.4,6.34.39,1.33.5,2.71.33,4.07-.31,3-1.78,6.03-4.55,7.82-5.8,3.73-9.37.27-11.09-4.38-1.09-2.63-1.45-5.46-1.02-8.23.31-2.1-.78-3.76,1.07-5.26l.28-.2Z"/><ellipse class="cls-20_checklist-1-18" cx="406.72" cy="154.66" rx="16.07" ry="17.64"/><path class="cls-22_checklist-1-18" d="M355.71,203.34s-2.95-4.58-4.23-5.26-3.54-2.57-4.2-2.14c-1.19.76,3.93,4.77-.63,4.47-.72-.05-4.38,0-6.15,1.46-1.36,1.14-1.41,3.03-.12,4.22.09.08.19.16.29.24,1.2.72,5.31,1.05,7.53.99,2.22-.06,4.83.22,6.34,1.02"/><path class="cls-22_checklist-1-18" d="M387.21,183.89s-2.11,5.84-2.32,8.99-1.89,16.41-2.46,17.05-27.57-7.43-27.57-7.43c0,0-1.63,2.02-.33,5.84,0,0,20.06,15.97,32.2,16.6s10.58-24.68,10.58-24.68"/><path class="cls-22_checklist-1-18" d="M410.96,350.41l-2.23,4.44c1.32-.4,7.64,4.07,10.48,4.08,1.87-.07,3.67-.65,5.15-1.66l-1.79-8.04-3.18-39.81-17.12,2.18,8.69,38.81Z"/><path class="cls-22_checklist-1-18" d="M377.96,350.08l-3.29,2.71c1.39-.09,6.24,5.62,9,6.26,1.83.34,3.74.18,5.47-.47l.54-8.19,3.47-36.85-16.88,1.46,1.69,35.09Z"/><path class="cls-22_checklist-1-18" d="M413,166.43l.69,12.82c-1.55,1.99-4.21,3.09-6.94,2.86-7.03-.69-6.73-2.52-6.73-2.52,0,0,0-9.25-.28-11.32"/><path class="cls-18_checklist-1-18" d="M411.33,170.6l1.62-2.58-13.2,1.29c.1.76.17,2.63.21,4.58,4.2,1.1,8.73-.22,11.37-3.29Z"/><path class="cls-20_checklist-1-18" d="M423.4,259.2s2.12,35.26,4.94,63.79c0,0-38.74,4.91-54.56-.55,0,0,3.4-56.85,4.11-65.01l45.51,1.77Z"/><path class="cls-16_checklist-1-18" d="M423.4,259.2s2.12,35.26,4.94,63.79c0,0-38.74,4.91-54.56-.55,0,0,3.4-56.85,4.11-65.01l45.51,1.77Z"/><path class="cls-23_checklist-1-18 targetColor" d="M423.41,183.15s-.07-2.52-9.99-2.6c-7.23-.06-9.75-.58-14.89.28-9.37,1.57-10.41,2.09-11.85,3.15-3.39,2.57-9.15,71.79-9.15,71.79,0,0-5.75,8.31,24.04,10.98,11.02.99,21.7-5.73,21.7-5.73l.14-77.89Z" style="fill: rgb(250, 204, 21);"/><path class="cls-22_checklist-1-18" d="M418.49,145.68s-.58,16.41-6.01,22.03c-5.72,5.93-8.97,6.65-15.92,4.23-5.9-2.07-6.6-16.28-6.8-20.38-.51-10.62,17.99-19.77,28.73-5.88Z"/><polygon class="cls-14_checklist-1-18" points="422.8 194.39 423.23 261.01 416.39 264.48 415.16 205.64 422.8 194.39"/><path class="cls-23_checklist-1-18 targetColor" d="M417.04,177.7l.13,3c.02.49-.29.94-.78,1.16,0,0-5.35,1.6-14.61,2.02l-6.8-1.53c-.5-.18-.84-.6-.87-1.08l-.1-1.49c-.04-.66.51-1.24,1.26-1.32l20.14-2.01c.78-.09,1.5.39,1.61,1.08,0,.05.01.1.01.16Z" style="fill: rgb(250, 204, 21);"/><path class="cls-15_checklist-1-18" d="M417.04,177.7l.13,3c.02.49-.29.94-.78,1.16,0,0-5.35,1.6-14.61,2.02l-6.8-1.53c-.5-.18-.84-.6-.87-1.08l-.1-1.49c-.04-.66.51-1.24,1.26-1.32l20.14-2.01c.78-.09,1.5.39,1.61,1.08,0,.05.01.1.01.16Z"/><path class="cls-22_checklist-1-18" d="M416.33,156.09s.3-2.47,3.06-1.41c2.77,1.07.16,5.35-.91,6.55s-3.14.82-3.14.82"/><polygon class="cls-23_checklist-1-18 targetColor" points="420.71 144.69 421.81 148.57 420 148.57 418.49 142.65 420.71 144.69" style="fill: rgb(250, 204, 21);"/><path class="cls-23_checklist-1-18 targetColor" d="M423.03,182.46s4.08,3.38,11.59,19.22c3.06,6.48,5.62,18.54,5.62,18.54,0,0-10.47,4.73-16.64,4.73-2.76-14.09-9.39-19.55-10.62-26.05-1.23-6.5,6.32-17.69,10.05-16.44Z" style="fill: rgb(250, 204, 21);"/><path class="cls-23_checklist-1-18 targetColor" d="M369.55,353.58c-3.02.75-5.69,2.34-7.62,4.52-.77.86-1.23,1.9-1.35,2.99-.09,1.11.52,2.17,1.59,2.76.73.29,1.53.42,2.33.4,7.42.28,14.84.16,22.24-.34.63.03,1.24-.18,1.67-.59.2-.34.27-.73.21-1.12l-.21-4.09c.04-.46-.1-.91-.38-1.3-.82-.89-2.43-.15-3.72-.21-2.6-.12-3.26-2.97-5.41-3.76-2.45-.9-6.91.08-9.36.74Z" style="fill: rgb(250, 204, 21);"/><path class="cls-23_checklist-1-18 targetColor" d="M405.68,353.35c-3.03.75-5.7,2.33-7.62,4.52-.77.86-1.24,1.9-1.35,2.99-.09,1.11.52,2.17,1.6,2.75.73.29,1.53.43,2.33.4,7.42.28,14.84.16,22.24-.35.85.17,1.7-.3,1.89-1.05.06-.21.05-.44,0-.65l-.21-4.1c.04-.46-.1-.91-.38-1.29-.82-.89-2.43-.15-3.73-.21-2.6-.12-3.25-2.97-5.4-3.77-2.49-.9-6.94.08-9.36.75Z" style="fill: rgb(250, 204, 21);"/><path class="cls-5_checklist-1-18" d="M369.55,353.58c-3.02.75-5.69,2.34-7.62,4.52-.77.86-1.23,1.9-1.35,2.99-.09,1.11.52,2.17,1.59,2.76.73.29,1.53.42,2.33.4,7.42.28,14.84.16,22.24-.34.63.03,1.24-.18,1.67-.59.2-.34.27-.73.21-1.12l-.21-4.09c.04-.46-.1-.91-.38-1.3-.82-.89-2.43-.15-3.72-.21-2.6-.12-3.26-2.97-5.41-3.76-2.45-.9-6.91.08-9.36.74Z"/><path class="cls-2_checklist-1-18" d="M405.68,353.35c-3.03.75-5.7,2.33-7.62,4.52-.77.86-1.24,1.9-1.35,2.99-.09,1.11.52,2.17,1.6,2.75.73.29,1.53.43,2.33.4,7.42.28,14.84.16,22.24-.35.85.17,1.7-.3,1.89-1.05.06-.21.05-.44,0-.65l-.21-4.1c.04-.46-.1-.91-.38-1.29-.82-.89-2.43-.15-3.73-.21-2.6-.12-3.25-2.97-5.4-3.77-2.49-.9-6.94.08-9.36.75Z"/><path class="cls-20_checklist-1-18" d="M390.15,141.86c-.29.45-.56.92-.82,1.43-.73,1.33-1.08,2.8-1.02,4.28,0,.61,1.35,3.53,1.21,3.77,1.79-3.14,4.44-5.84,7.72-7.85,1.23,2.45,4.23,3.77,6.94,4.92s5.73,2.57,6.79,5.09c.74,1.73.46,3.82,1.74,5.28,3.15-.37,3.84-4.85,6.94-5.35.56-.09,1.15,0,1.74-.14,1.44-.37,2.45-1.52,2.49-2.84.49-5.78-7.48-11.15-12.8-13.08-4.98-1.85-10.59-1.85-15.57,0-2.33.91-4.22,2.5-5.35,4.51Z"/><path class="cls-3_checklist-1-18" d="M390.15,141.86c-.29.45-.56.92-.82,1.43-.73,1.33-1.08,2.8-1.02,4.28,0,.61,1.35,3.53,1.21,3.77,1.79-3.14,4.44-5.84,7.72-7.85,1.23,2.45,4.23,3.77,6.94,4.92s5.73,2.57,6.79,5.09c.74,1.73.46,3.82,1.74,5.28,3.15-.37,3.84-4.85,6.94-5.35.56-.09,1.15,0,1.74-.14,1.44-.37,2.45-1.52,2.49-2.84.49-5.78-7.48-11.15-12.8-13.08-4.98-1.85-10.59-1.85-15.57,0-2.33.91-4.22,2.5-5.35,4.51Z"/><path class="cls-23_checklist-1-18 targetColor" d="M349.99,125.39l-10.54-21.06-.87-1.79c-.03-.06-.08-.1-.15-.13-.18-.17-.49-.17-.67,0-.05.04-.08.09-.11.14l-11.42,22.85c-.23.48-.35,1-.35,1.53v220.65h24.46V126.92c0-.53-.11-1.05-.35-1.54ZM350.13,347.43h-24.12v-4.68h24.12v4.68Z" style="fill: rgb(250, 204, 21);"/><path class="cls-4_checklist-1-18" d="M346.13,126.92v215.83h-14.99V126.89c-.01-.51.06-1.03.2-1.53l7-22.85s.02-.09.05-.13c.15-.21.41-.15.49.13l.56,1.79,6.45,21.06c.16.51.24,1.03.23,1.56Z"/><path class="cls-10_checklist-1-18" d="M331.14,347.43h14.99v15.9c0,2.09-1.2,3.78-2.65,3.78h-9.73c-1.46,0-2.6-1.69-2.6-3.78v-15.9Z"/><path class="cls-8_checklist-1-18" d="M350.33,126.92c-7.72,3.31-16.74,3.31-24.46,0l7.2-13.85,5.46-10.5,4.7,9.74,7.09,14.62Z"/><path class="cls-23_checklist-1-18 targetColor" d="M343.24,112.27c-3.18,1.31-6.78,1.58-10.16.76l5.46-10.5,4.7,9.74Z" style="fill: rgb(250, 204, 21);"/><path class="cls-7_checklist-1-18" d="M343.24,112.27c-3.47,1.53-7.81,1.27-10.74.66l5.48-11.3,5.26,10.64Z"/><rect class="cls-23_checklist-1-18 targetColor" x="326.03" y="342.75" width="24.11" height="4.68" style="fill: rgb(250, 204, 21);"/><rect class="cls-6_checklist-1-18" x="326.03" y="342.75" width="24.11" height="4.68"/><path class="cls-23_checklist-1-18 targetColor" d="M350.33,347.56v15.77c0,2.08-1.91,3.78-4.28,3.78-.02,0-.04,0-.06,0h-15.82c-2.37,0-4.29-1.68-4.3-3.77v-15.79h24.46Z" style="fill: rgb(250, 204, 21);"/><path class="cls-9_checklist-1-18" d="M350.33,347.56v15.77c0,2.08-1.91,3.78-4.28,3.78-.02,0-.04,0-.06,0h-15.82c-2.37,0-4.29-1.68-4.3-3.77v-15.79h24.46Z"/></g></svg>